<?xml version="1.0" encoding="utf-8"?>
<svg xmlns="http://www.w3.org/2000/svg"
	xmlns:xlink="http://www.w3.org/1999/xlink"
	width="22px" height="22px" viewBox="0 0 22 22">
<path fillRule="evenodd" d="M 21.51 20.87C 21.51 20.87 20.87 21.52 20.87 21.52 20.22 22.16 19.18 22.16 18.53 21.52 18.53 21.52 14.48 17.47 14.48 17.47 13.02 18.38 11.3 18.9 9.46 18.9 4.24 18.9-0 14.67-0 9.45-0 4.23 4.24-0 9.46-0 14.69-0 18.92 4.23 18.92 9.45 18.92 11.3 18.39 13.03 17.47 14.49 17.47 14.49 21.51 18.53 21.51 18.53 22.16 19.18 22.16 20.23 21.51 20.87ZM 9.46 2.62C 5.68 2.62 2.62 5.68 2.62 9.45 2.62 13.23 5.68 16.29 9.46 16.29 13.24 16.29 16.3 13.23 16.3 9.45 16.3 5.68 13.24 2.62 9.46 2.62Z" fill="rgb(226,226,226)"/></svg>